<svg version="1.1" id="Layer_1" xmlns="http://www.w3.org/2000/svg" xmlns:xlink="http://www.w3.org/1999/xlink" x="0px" y="0px"
	 width="100%" viewBox="0 0 483 194" enable-background="new 0 0 483 194" xml:space="preserve">
<path fill="#FDFDFC" opacity="1.000000" stroke="none" 
	d="
M304.000000,195.000000 
	C202.666702,195.000000 101.833405,195.000000 1.000081,195.000000 
	C1.000054,130.333389 1.000054,65.666786 1.000027,1.000133 
	C161.999893,1.000089 322.999786,1.000089 483.999756,1.000044 
	C483.999817,65.666527 483.999817,130.333054 483.999908,194.999786 
	C424.166656,195.000000 364.333344,195.000000 304.000000,195.000000 
M451.071930,102.942291 
	C451.071930,102.942291 451.167511,102.873627 450.800323,102.277817 
	C449.182892,102.142014 447.565460,102.006218 445.281708,101.888077 
	C444.842834,101.956917 444.403992,102.025764 443.422882,101.615913 
	C438.895050,100.716484 436.575470,103.280754 434.349792,107.207901 
	C428.772583,112.435852 423.011993,117.603661 423.016510,126.108032 
	C423.017487,127.976151 423.844910,129.843826 424.291748,131.711716 
	C426.194824,131.082535 428.097870,130.453354 430.692169,129.734604 
	C434.528168,127.668022 438.364166,125.601440 442.823364,123.508675 
	C444.122131,124.707878 445.420898,125.907074 446.993927,127.696213 
	C447.636383,128.528687 448.278809,129.361176 449.000244,130.634918 
	C449.125977,130.951599 449.359222,131.112839 450.057404,131.773773 
	C452.261139,132.572998 454.464874,133.372238 456.419556,134.081146 
	C456.816589,125.807175 457.418518,118.058556 457.390472,110.312218 
	C457.383881,108.486153 455.255127,106.667763 454.060791,104.958687 
	C454.060791,104.958687 454.155060,104.883842 453.838776,104.337364 
	C452.929016,103.835167 452.019257,103.332970 451.071930,102.942291 
M285.010162,165.488068 
	C285.132660,165.783020 285.255157,166.077972 285.377625,166.372925 
	C285.509064,166.276611 285.640533,166.180313 285.771973,166.084015 
	C285.507507,165.727646 285.243011,165.371277 284.979553,164.332672 
	C284.077026,160.468002 280.897430,164.731812 279.457458,162.785736 
	C278.357208,164.892715 277.256989,166.999695 276.156738,169.106674 
	C278.820343,169.507690 281.483917,169.908707 283.606262,170.228226 
	C284.220337,167.952301 284.621765,166.464401 285.010162,165.488068 
M204.860672,168.637833 
	C204.413971,169.261673 203.967255,169.885513 203.520569,170.509369 
	C205.880203,170.273056 208.239838,170.036743 210.599472,169.800430 
	C210.339111,168.212082 210.078751,166.623749 209.780914,164.806717 
	C210.083160,164.676163 211.149979,164.215378 212.216797,163.754608 
	C212.098495,163.236755 211.980209,162.718903 211.861923,162.201065 
	C209.557922,162.695602 207.253937,163.190140 204.949936,163.684677 
	C205.463120,164.940247 205.976303,166.195816 205.994553,168.027969 
	C205.841202,168.229599 205.687866,168.431213 204.860672,168.637833 
M64.370445,78.492371 
	C66.227676,76.317566 68.084900,74.142754 70.701553,71.078667 
	C60.198654,72.204796 51.330811,74.093979 43.889503,79.998421 
	C38.899422,83.957901 36.174217,89.208740 37.054699,95.714218 
	C37.222301,96.952522 39.088562,99.008881 40.029846,98.933113 
	C49.911316,98.137695 59.545666,96.150505 67.491669,89.716599 
	C71.672729,86.331192 74.256653,81.889427 73.929436,75.023140 
	C70.419159,77.512505 67.828621,79.349617 64.684517,80.845558 
	C64.469498,80.254807 64.254478,79.664047 64.370445,78.492371 
M59.946110,45.762550 
	C55.551285,44.403141 51.186684,42.933731 46.753105,41.715347 
	C42.346912,40.504498 37.871361,39.546040 33.426224,38.476898 
	C33.235390,39.023598 33.044556,39.570297 32.853725,40.116997 
	C45.302429,46.172516 57.336670,52.842258 67.672127,61.655464 
	C60.392765,65.037849 53.780533,68.110252 47.168304,71.182663 
	C47.424660,71.853195 47.681011,72.523735 47.937366,73.194267 
	C52.043987,72.006996 56.120651,70.701111 60.262936,69.655060 
	C71.914314,66.712753 77.033821,68.737381 83.273743,78.842888 
	C93.970558,96.166298 90.524712,112.538582 79.695915,128.315247 
	C77.486412,131.534317 75.035789,134.587875 72.364601,138.161514 
	C78.381439,137.494202 83.728401,137.241592 88.923462,136.218048 
	C93.131866,135.388885 98.346672,139.099014 101.368073,134.773712 
	C103.956329,131.068466 104.900734,126.213577 106.559593,121.862350 
	C106.736687,121.397827 106.893669,120.908867 106.952194,120.418381 
	C108.077927,110.982674 109.187531,101.545044 110.311569,92.013687 
	C115.250969,91.231041 121.254295,90.722527 127.026161,89.284798 
	C146.767670,84.367325 155.100571,69.575356 149.439789,49.385857 
	C148.910675,51.197178 148.482391,52.607483 148.086563,54.026836 
	C142.674408,73.434120 129.248322,83.145103 109.233276,81.710724 
	C107.048843,81.554184 104.621719,79.786423 102.977135,78.109100 
	C99.268730,74.326866 96.202225,69.911217 92.461708,66.165565 
	C88.276176,61.974289 87.155647,57.931789 91.461052,53.901329 
	C95.315819,50.292732 100.308746,46.662746 105.296501,45.745918 
	C117.640236,43.476940 130.268600,42.756519 142.781891,41.407322 
	C142.922012,41.392212 143.052734,41.289814 143.187836,41.228161 
	C143.179688,41.324615 143.171524,41.421066 143.201996,41.060799 
	C142.064316,40.658909 140.870743,40.217915 139.664658,39.814301 
	C130.574997,36.772449 121.177933,36.926811 111.753967,36.930443 
	C98.188141,36.935669 86.847610,41.508537 78.117088,52.136093 
	C77.341782,53.079861 75.426941,54.219986 74.707771,53.875927 
	C71.995018,52.578125 69.557678,50.704643 67.844162,48.982533 
	C69.715599,49.254791 71.587036,49.527050 74.317101,49.924221 
	C73.466728,46.435879 72.729843,43.413055 71.992950,40.390228 
	C72.348152,40.110828 72.703354,39.831429 73.058563,39.552029 
	C75.297279,41.780960 77.535995,44.009895 80.348907,46.810509 
	C81.657982,39.186577 81.689857,32.588230 75.741714,28.660982 
	C69.168579,24.321095 61.833408,21.108131 54.688953,17.700335 
	C53.921497,17.334272 51.671448,18.614374 51.032509,19.682961 
	C47.419022,25.726280 48.628723,33.429283 53.882145,38.955647 
	C55.920826,41.100239 58.162094,43.052238 59.946110,45.762550 
M185.918579,119.353409 
	C185.918579,123.752769 185.918579,128.152130 185.918579,132.551483 
	C186.600983,132.948395 187.283401,133.345291 187.965805,133.742203 
	C189.950775,132.333160 192.156250,131.149475 193.874695,129.468048 
	C197.429214,125.990082 200.724518,122.247208 204.869873,117.819122 
	C205.677704,127.311928 207.538422,128.496994 214.793167,124.947174 
	C218.617981,123.075661 222.057693,120.417152 226.317902,117.701859 
	C226.317902,121.950218 226.317902,125.602707 226.317902,129.905579 
	C231.093689,127.649208 236.702789,126.670502 239.232162,123.347572 
	C241.916306,119.821281 241.676971,114.069702 242.714355,109.289925 
	C239.009811,108.188499 235.315033,107.051773 231.590622,106.022179 
	C231.004913,105.860260 230.187149,106.007980 229.642700,106.310898 
	C225.587875,108.566910 221.477997,108.181686 217.240875,106.894531 
	C212.741379,105.527657 208.778214,106.424309 205.468002,109.984650 
	C204.582626,110.936913 203.248871,111.472305 201.062531,112.881050 
	C202.311829,108.530037 203.191162,105.467514 204.075607,102.387161 
	C198.172195,101.431885 188.068268,104.581192 187.456619,111.690323 
	C187.258835,113.989120 186.513031,116.240776 185.918579,119.353409 
M353.699738,104.980202 
	C350.314667,106.990891 346.681396,108.683868 343.603760,111.088112 
	C339.183746,114.540955 334.526520,118.025917 333.947296,124.394409 
	C333.435303,130.023727 336.662537,132.806519 341.824066,130.752121 
	C346.109070,129.046616 350.195465,126.842079 354.548065,124.773918 
	C356.745758,127.131210 358.868256,129.459579 361.046692,131.734406 
	C366.728607,137.667755 371.084625,137.564423 376.866089,131.382660 
	C371.413757,130.325546 371.301208,125.986336 371.159637,121.839050 
	C370.819977,111.888245 372.820923,102.329002 376.250549,93.023521 
	C376.845490,91.409325 377.135193,89.682617 377.654022,87.665009 
	C372.316711,87.602539 368.955536,89.093781 366.368622,93.372276 
	C363.491547,98.130653 361.288239,104.033051 353.699738,104.980202 
M280.990112,97.424599 
	C275.401215,104.255829 269.812317,111.087059 264.223419,117.918282 
	C263.856476,117.751030 263.489502,117.583786 263.122559,117.416534 
	C263.122559,113.024757 263.122559,108.632988 263.122559,104.131416 
	C257.629211,103.314194 252.623398,102.569511 247.526642,101.811295 
	C245.731461,109.425598 246.749374,116.217224 248.991623,122.936958 
	C250.123581,126.329277 251.060410,129.858109 257.011871,128.195938 
	C254.891556,130.621109 253.629501,132.064606 251.510025,134.488785 
	C253.981400,134.141769 255.534637,134.218460 256.846771,133.693069 
	C267.880402,129.275009 277.553864,123.263153 282.085846,111.439850 
	C282.319763,110.829536 282.676636,110.210915 283.131714,109.749443 
	C287.321533,105.500961 284.821808,101.179535 283.234070,96.906868 
	C283.155670,96.695915 282.056732,96.864182 280.990112,97.424599 
M316.317902,130.389328 
	C320.089478,132.031967 323.861023,133.674622 327.996582,135.475800 
	C327.996582,125.712769 327.996582,116.899818 327.996582,108.057991 
	C323.929108,107.934860 320.863739,108.151276 318.449982,113.072411 
	C315.765289,118.545822 309.519714,120.815247 303.690552,122.445808 
	C303.262909,122.117500 302.835266,121.789192 302.407623,121.460892 
	C305.174805,114.860252 307.941986,108.259621 310.955109,101.072319 
	C307.875580,101.640800 305.184021,102.192863 302.473663,102.627823 
	C293.686340,104.038025 292.609039,104.966034 290.828308,113.723785 
	C290.370422,115.975723 290.280640,118.341003 290.321991,120.648834 
	C290.454010,128.018448 293.859314,130.526474 301.120605,128.701462 
	C302.076538,128.461197 303.048004,128.085266 303.873291,127.555595 
	C308.613983,124.512909 312.656891,124.748749 316.317902,130.389328 
M149.180679,103.351097 
	C148.036896,104.409386 146.152954,105.304077 145.876648,106.554108 
	C144.638474,112.155785 143.698608,117.838264 142.971069,123.532463 
	C142.523239,127.037331 144.643524,129.086121 148.025848,128.639709 
	C153.186539,127.958557 158.269409,126.687576 164.086975,125.527069 
	C167.434341,131.066055 173.711548,133.265457 180.459152,134.963303 
	C180.459152,125.663750 180.459152,116.961060 180.459152,107.876518 
	C176.881531,108.433777 173.452332,107.537865 170.994675,112.857704 
	C168.397034,118.480583 162.083145,120.985771 156.040741,122.342651 
	C155.659683,121.966759 155.278625,121.590858 154.897552,121.214958 
	C157.661911,114.698685 160.426270,108.182404 163.392380,101.190514 
	C158.738007,101.902603 154.366119,102.571480 149.180679,103.351097 
M119.859741,67.683975 
	C129.085831,65.852417 137.115662,62.225986 141.954590,53.406059 
	C127.401962,46.559685 100.852074,46.800282 93.847443,59.957832 
	C98.601562,59.150173 103.435593,58.328941 108.269623,57.507713 
	C108.379166,57.986389 108.488708,58.465061 108.598251,58.943737 
	C104.100624,60.644466 99.602997,62.345192 95.105370,64.045921 
	C95.212852,64.864098 95.320335,65.682281 95.427826,66.500458 
	C103.277702,66.934265 111.127586,67.368065 119.859741,67.683975 
M392.899109,107.307808 
	C395.633362,107.307808 398.367584,107.307808 401.713043,107.307808 
	C396.216492,110.466949 391.148376,113.146736 386.325287,116.212090 
	C380.560120,119.876198 380.512024,122.765724 386.369446,125.859116 
	C391.016357,128.313232 395.939880,130.498627 400.996063,131.841293 
	C404.979767,132.899155 409.352783,132.490891 413.552856,132.733826 
	C413.520203,132.407120 413.487549,132.080399 413.454865,131.753693 
	C407.979126,129.505356 402.503357,127.257027 397.027618,125.008690 
	C397.150604,124.504730 397.273560,124.000763 397.396545,123.496803 
	C399.935364,122.378326 402.472382,121.255806 405.013428,120.142441 
	C407.753265,118.941986 410.567108,117.884178 413.209961,116.499397 
	C414.586456,115.778130 416.345612,114.696205 416.740356,113.411148 
	C417.664581,110.402611 410.581604,102.675217 407.352081,102.704765 
	C401.713776,102.756363 396.057404,102.528252 390.445221,102.929359 
	C388.127777,103.094994 385.904846,104.582687 383.638947,105.469078 
	C383.841248,106.331886 384.043549,107.194695 384.245880,108.057503 
	C386.838684,107.839272 389.431488,107.621048 392.899109,107.307808 
M117.031601,123.402122 
	C117.230019,130.539932 121.439278,135.441650 126.577644,139.556763 
	C127.670891,140.432297 130.389832,140.170303 131.858582,139.433395 
	C133.325562,138.697372 135.122360,137.835617 134.473801,134.729218 
	C133.436111,129.759140 132.281677,123.870285 134.032913,119.519516 
	C135.879120,114.932793 135.373886,113.874825 130.917587,113.246017 
	C130.583786,104.350502 141.034164,98.688538 137.602875,88.926880 
	C131.908493,95.227821 126.544815,101.675804 122.171051,108.736954 
	C119.635216,112.830887 118.691429,117.910957 117.031601,123.402122 
M345.482452,144.063751 
	C344.594482,142.889557 343.854797,141.549377 342.777618,140.586945 
	C341.656647,139.585403 340.209778,138.948654 338.905396,138.152374 
	C338.267090,139.346634 337.527039,140.500351 337.028900,141.750473 
	C336.733398,142.492050 336.654114,143.408997 336.766907,144.206146 
	C337.033081,146.086395 337.472412,147.942108 337.841736,149.807755 
	C338.670898,148.149902 339.481781,146.482346 340.349487,144.844894 
	C340.476105,144.605972 340.873810,144.510681 341.149048,144.353928 
	C345.298737,149.383942 345.298737,149.383942 349.825562,144.173492 
	C351.413940,149.456711 351.413940,149.456711 354.315155,149.077042 
	C354.255981,147.952728 354.380737,146.764343 354.098969,145.681732 
	C353.439148,143.146240 352.584534,140.661423 351.808746,138.156097 
	C349.905609,139.986038 348.002502,141.815964 345.482452,144.063751 
M203.809708,141.364182 
	C203.686996,142.355270 203.345459,143.379181 203.488159,144.330460 
	C203.765594,146.179855 204.314697,147.988480 204.751266,149.813995 
	C205.520065,148.107635 206.277588,146.395981 207.070526,144.700912 
	C207.182159,144.462280 207.466812,144.304565 207.673431,144.111557 
	C213.128281,150.309814 211.562149,149.435898 216.635498,144.149246 
	C218.468735,145.428619 215.650726,150.765793 220.952194,149.430298 
	C220.952194,147.925430 221.182602,146.715607 220.906021,145.635620 
	C220.255188,143.094376 219.362366,140.615112 218.567444,138.110764 
	C216.659210,139.969528 214.758728,141.836441 212.829788,143.673462 
	C212.652649,143.842163 212.293777,143.820068 211.812088,143.936768 
	C210.856018,142.485809 210.072449,140.763138 208.816986,139.515182 
	C206.890900,137.600647 204.793091,136.711227 203.809708,141.364182 
M401.267181,140.152786 
	C399.678436,139.368973 398.089691,138.585159 395.738098,137.424973 
	C395.738098,141.493515 395.573181,144.311554 395.828918,147.090866 
	C395.916656,148.044647 397.056519,148.901642 397.715698,149.802856 
	C398.294678,148.830338 399.054352,147.917847 399.402893,146.868759 
	C399.767090,145.772522 399.735718,144.544861 400.049377,141.951324 
	C402.026123,144.329254 403.067474,145.831436 404.362244,147.068314 
	C405.624023,148.273666 407.145081,149.207642 409.800201,151.194687 
	C409.800201,147.354874 410.010193,145.233398 409.735352,143.176712 
	C409.505463,141.456375 408.708618,139.811798 408.162811,138.133682 
	C407.401489,139.794617 406.655609,141.463013 405.859894,143.107315 
	C405.756592,143.320694 405.395905,143.409515 405.029205,143.632034 
	C403.975037,142.651978 402.891815,141.644958 401.267181,140.152786 
M174.936691,147.618546 
	C174.685028,146.462860 173.825638,144.890976 174.284058,144.221558 
	C176.606155,140.830780 174.913818,139.074692 171.864731,138.514526 
	C169.078369,138.002625 166.123871,138.405991 163.006607,138.405991 
	C163.006607,141.795364 162.870438,144.624725 163.089478,147.426300 
	C163.155304,148.268234 164.210205,149.032822 164.811996,149.832855 
	C165.519547,149.131699 166.315445,148.496384 166.903915,147.706512 
	C167.303955,147.169601 167.413315,146.416122 168.192307,144.279022 
	C169.783951,146.465118 170.519836,148.139481 171.802246,148.974747 
	C172.510040,149.435760 174.134796,148.488968 174.936691,147.618546 
M325.064056,149.876175 
	C328.608002,149.111877 332.053802,147.441727 330.911682,143.425385 
	C330.284363,141.219208 327.222656,138.865494 324.805878,138.184143 
	C319.893250,136.799149 315.458191,139.618103 315.051575,143.387466 
	C314.621368,147.376007 317.906342,149.723389 325.064056,149.876175 
M243.795380,145.271210 
	C243.885437,146.687210 243.975494,148.103195 244.074280,149.656570 
	C249.076996,149.877213 253.990601,151.019653 257.157959,146.511063 
	C258.020538,145.283173 257.932922,142.271667 256.999542,141.098801 
	C253.641846,136.879425 248.815231,137.982529 243.796295,138.338272 
	C243.796295,140.514389 243.796295,142.465439 243.795380,145.271210 
M277.874603,147.298447 
	C281.120514,148.069565 284.366425,148.840668 288.599243,149.846237 
	C286.428436,145.969345 284.848541,142.748566 282.891602,139.775986 
	C281.250336,137.282867 278.983063,137.261536 277.342316,139.783096 
	C275.403259,142.763077 273.834137,145.983749 272.104645,149.100082 
	C272.464203,149.470047 272.823761,149.840012 273.183289,150.209976 
	C274.494293,149.367538 275.805267,148.525116 277.874603,147.298447 
M382.541199,147.267593 
	C385.133209,148.105057 387.725220,148.942505 391.596191,150.193192 
	C389.235535,145.952423 387.741119,143.025436 386.018860,140.239273 
	C384.139954,137.199768 381.837769,137.044952 379.886719,140.102432 
	C378.051239,142.978729 376.565521,146.078186 374.925934,149.079468 
	C375.191833,149.409424 375.457764,149.739365 375.723663,150.069305 
	C377.704285,149.137054 379.684875,148.204803 382.541199,147.267593 
M157.715256,149.407089 
	C156.154877,146.191360 154.798889,142.853470 152.972183,139.796890 
	C151.389282,137.148270 149.063812,137.342255 147.437592,139.789459 
	C145.467682,142.753815 143.891235,145.979630 142.144547,149.092316 
	C144.010681,149.625626 145.366791,149.532150 146.179260,148.819168 
	C149.046478,146.303024 151.591003,146.412216 154.307632,149.036713 
	C154.896667,149.605759 156.102859,149.536011 157.715256,149.407089 
M235.987610,147.297028 
	C234.289963,147.073395 232.592300,146.849762 230.894653,146.626129 
	C230.935776,146.219360 230.976898,145.812607 231.018005,145.405838 
	C233.104065,145.056946 235.190125,144.708054 237.276184,144.359161 
	C237.294327,143.960159 237.312469,143.561172 237.330627,143.162186 
	C235.236191,142.745071 233.141769,142.327942 231.047348,141.910828 
	C231.081635,141.597244 231.115936,141.283661 231.150238,140.970078 
	C233.482117,140.637009 235.814011,140.303925 238.145889,139.970840 
	C238.085632,139.502762 238.025360,139.034668 237.965103,138.566589 
	C234.398361,138.566589 230.831635,138.566589 227.407257,138.566589 
	C227.407257,142.463638 227.407257,146.014236 227.407257,149.863739 
	C230.780243,149.863739 233.752182,149.934540 236.715714,149.808075 
	C237.361511,149.780518 237.977188,149.047485 238.606735,148.639359 
	C238.005630,148.195618 237.404526,147.751892 235.987610,147.297028 
M371.672180,139.577606 
	C368.084930,138.898315 364.497681,138.219025 360.206757,137.406494 
	C360.206757,141.638992 360.108765,144.596344 360.272491,147.539154 
	C360.315918,148.319839 361.037109,149.500259 361.679108,149.683243 
	C362.282349,149.855148 363.228302,149.005463 363.958801,148.509933 
	C365.201813,147.666718 366.274597,146.400055 367.632538,145.934387 
	C370.505188,144.949295 373.853027,144.636841 371.672180,139.577606 
M371.021271,172.651489 
	C372.601288,169.616547 374.181274,166.581604 375.761292,163.546646 
	C375.246002,162.916977 374.730713,162.287292 374.215393,161.657623 
	C371.239746,162.791962 368.058990,163.602722 365.423492,165.273605 
	C364.707428,165.727600 365.636475,168.776352 365.840088,170.950226 
	C365.530304,171.115524 364.519958,171.654694 363.509644,172.193848 
	C363.588806,172.596832 363.667999,172.999802 363.747162,173.402786 
	C365.941071,173.263290 368.134949,173.123795 371.021271,172.651489 
M343.149628,166.535873 
	C342.326538,163.148819 337.734680,161.377991 332.102753,162.564575 
	C327.555908,163.522522 328.377747,167.345474 327.700134,170.320816 
	C328.155334,170.595566 328.610535,170.870331 329.065735,171.145081 
	C330.473785,168.944077 331.881836,166.743088 333.289917,164.542084 
	C333.612793,164.705841 333.935699,164.869598 334.258606,165.033340 
	C334.042603,166.840225 333.826599,168.647125 333.610596,170.454010 
	C335.401093,170.107437 336.323792,169.243683 336.995911,168.216003 
	C337.680054,167.169922 338.117554,165.962509 338.663055,164.825729 
	C339.080017,164.976456 339.496979,165.127167 339.913910,165.277878 
	C339.710297,166.778290 339.506653,168.278687 339.303040,169.779099 
	C339.575500,170.028809 339.847992,170.278503 340.120483,170.528214 
	C341.093658,169.463348 342.066803,168.398499 343.149628,166.535873 
M138.597092,171.691772 
	C139.832336,171.326614 141.306290,171.267029 142.250458,170.529343 
	C143.941376,169.208206 145.313370,167.478897 146.818665,165.920197 
	C145.454590,164.749512 144.254578,162.966873 142.689163,162.547150 
	C140.146957,161.865555 137.790771,162.596451 137.087601,165.857391 
	C136.574539,168.236786 135.691574,170.536407 134.639359,173.958237 
	C136.439423,173.152039 137.340225,172.748581 138.597092,171.691772 
M306.453766,140.351913 
	C307.903564,140.351913 309.353363,140.351913 312.219696,140.351913 
	C306.742920,136.977966 300.743164,137.367325 299.125092,140.889511 
	C298.247253,142.800369 298.578583,146.167725 299.769409,147.927368 
	C301.815552,150.950928 308.020355,150.644226 311.630066,147.390594 
	C309.546967,147.390594 308.086548,147.714981 306.866394,147.311996 
	C305.179443,146.754791 303.673401,145.649704 302.089905,144.779251 
	C303.258301,143.314865 304.426666,141.850494 306.453766,140.351913 
M381.925446,168.089844 
	C381.567230,168.847321 381.209015,169.604797 380.850800,170.362289 
	C385.234924,168.148193 389.240753,166.840591 393.600983,171.148773 
	C393.531097,167.701233 393.152740,165.163956 392.604065,162.664062 
	C391.838348,159.174988 389.938110,159.228348 387.771393,161.428528 
	C385.859589,163.369843 384.156982,165.517181 381.925446,168.089844 
M262.446899,169.997269 
	C263.026886,170.222153 264.072968,170.714722 264.119720,170.633362 
	C266.041046,167.287872 269.548157,167.167297 272.667694,166.120209 
	C273.640381,165.793701 274.938507,164.007187 274.746063,163.214951 
	C274.465515,162.059982 273.143799,160.729263 271.964447,160.298065 
	C267.644226,158.718445 265.343353,160.052139 263.898926,164.543060 
	C263.390778,166.122925 262.882202,167.702652 262.446899,169.997269 
M188.372238,141.454712 
	C189.943298,140.854111 191.514374,140.253525 193.085449,139.652924 
	C193.033478,139.390686 192.981506,139.128433 192.929535,138.866180 
	C188.546082,138.866180 184.162643,138.866180 179.779205,138.866180 
	C179.752594,139.251862 179.725998,139.637543 179.699387,140.023224 
	C181.183624,140.388840 182.667847,140.754471 184.348282,141.168427 
	C184.348282,143.568314 184.158920,145.736008 184.449768,147.837234 
	C184.553223,148.584641 185.822876,149.170609 186.560181,149.830261 
	C187.119217,149.168472 188.064346,148.558289 188.161087,147.834671 
	C188.400940,146.040878 188.253113,144.195221 188.372238,141.454712 
M177.857285,165.402740 
	C176.999283,170.786102 177.575256,171.120102 186.473740,170.317032 
	C186.967194,168.018631 187.467087,165.690216 188.357758,161.541641 
	C184.299362,162.846237 181.289780,163.813660 177.857285,165.402740 
M419.288177,144.613815 
	C419.540466,145.876343 419.649933,147.193619 420.104279,148.378662 
	C420.337311,148.986542 421.158905,149.693924 421.764679,149.743546 
	C422.386597,149.794479 423.399384,149.259781 423.672089,148.702805 
	C425.337891,145.300171 426.841858,141.818298 429.105438,136.797623 
	C425.949463,138.967987 423.891541,140.383224 422.117981,141.602905 
	C420.045837,140.334915 417.919312,139.033676 415.792816,137.732422 
	C415.455322,138.189423 415.117828,138.646423 414.780304,139.103424 
	C416.118561,140.741409 417.456818,142.379410 419.288177,144.613815 
M309.586548,162.961090 
	C308.531982,164.806122 307.266388,166.582916 306.626617,168.562042 
	C306.517578,168.899353 309.046692,170.691223 310.429443,170.789200 
	C313.748138,171.024353 316.753662,169.449020 316.644043,165.888550 
	C316.524170,161.994308 313.287323,162.066467 309.586548,162.961090 
M129.783737,159.847351 
	C128.249741,160.856461 126.715729,161.865570 125.181717,162.874680 
	C126.661964,164.582230 128.142212,166.289795 129.927322,168.349014 
	C128.547623,168.429565 127.454567,168.483063 126.363174,168.560150 
	C125.385460,168.629196 124.409584,168.724197 123.432892,168.807739 
	C126.685921,171.306915 130.374313,172.090210 132.802994,169.079361 
	C136.072495,165.026108 129.636826,165.396561 129.007919,162.611450 
	C130.471405,162.208145 131.821686,161.836044 134.610855,161.067429 
	C132.307251,160.351181 131.466797,160.089874 129.783737,159.847351 
M362.211945,164.119064 
	C359.778320,163.710342 356.639923,162.193665 355.092468,163.178040 
	C353.228577,164.363708 352.716431,167.674255 351.619110,170.064941 
	C352.223145,170.418961 352.827179,170.772980 353.431183,171.126999 
	C354.941162,168.915283 356.451172,166.703552 357.961151,164.491821 
	C358.294647,164.697006 358.628143,164.902191 358.961639,165.107361 
	C358.686188,166.908264 358.410736,168.709152 358.135315,170.510040 
	C358.712646,170.732758 359.289978,170.955475 359.867310,171.178192 
	C360.717468,169.057587 361.567627,166.936996 362.211945,164.119064 
M254.094131,169.655945 
	C254.212433,167.501511 255.168365,164.736359 254.183823,163.386002 
	C253.397034,162.306854 249.404846,162.039230 248.335983,163.030106 
	C246.490860,164.740616 245.810852,167.707916 244.641983,170.147903 
	C245.258224,170.474564 245.874451,170.801208 246.490677,171.127869 
	C247.961365,168.871567 249.432068,166.615265 250.902756,164.358948 
	C251.309464,164.546692 251.716171,164.734421 252.122879,164.922150 
	C251.792114,166.261047 251.216354,167.608582 251.263138,168.934143 
	C251.279572,169.399323 252.824768,169.810532 254.094131,169.655945 
M149.531830,165.320984 
	C148.527328,170.478500 150.129089,171.647064 156.704376,170.191528 
	C156.050659,169.298401 155.485550,168.526337 155.416656,168.432205 
	C156.635056,166.680069 157.571655,165.333160 158.508270,163.986252 
	C156.741867,163.546875 154.964172,162.750427 153.213394,162.805740 
	C152.207199,162.837509 151.244598,164.249542 149.531830,165.320984 
M294.802185,172.254150 
	C297.585236,173.375870 297.885895,173.033585 299.640839,169.641205 
	C300.849731,167.304352 302.593414,165.244156 304.222870,162.879150 
	C299.959930,158.962357 299.992584,158.973740 297.627411,165.760742 
	C296.920074,167.790466 295.974396,169.737122 294.802185,172.254150 
M218.634949,168.652847 
	C217.769562,165.538513 217.769562,165.538513 222.830627,163.394760 
	C220.442703,162.365585 218.644867,161.590744 216.847031,160.815887 
	C215.969345,163.585556 215.091644,166.355240 214.213959,169.124924 
	C216.127701,169.626221 218.041443,170.127533 219.955170,170.628830 
	C219.782639,169.989120 219.610092,169.349411 218.634949,168.652847 
M406.336578,167.618561 
	C407.905884,171.548187 409.041931,171.877686 412.517487,169.680786 
	C411.692719,168.798691 410.824860,167.870514 409.956970,166.942307 
	C411.311981,165.800659 412.666992,164.659012 414.007904,163.529236 
	C408.992706,159.393906 408.991730,159.393585 406.989624,165.459946 
	C406.834564,165.929840 406.706421,166.408630 406.336578,167.618561 
M163.855347,170.890244 
	C165.218903,170.668610 166.582443,170.446991 168.633774,170.113571 
	C166.419556,168.671478 165.187698,167.869171 163.955841,167.066864 
	C165.735611,165.834198 167.515381,164.601547 169.590546,163.164291 
	C165.907623,161.438904 162.983932,162.407471 160.925858,165.329285 
	C159.186951,167.797989 160.450928,169.685974 163.855347,170.890244 
M265.474701,138.150131 
	C263.953094,139.641708 262.803650,147.914124 264.036713,149.182236 
	C264.416046,149.572342 265.314728,149.863907 265.763519,149.680832 
	C266.373596,149.431992 267.229919,148.657852 267.200745,148.154144 
	C267.008972,144.841080 266.607513,141.540131 265.474701,138.150131 
M230.055817,164.556580 
	C230.667328,164.258530 231.278839,163.960480 231.890350,163.662430 
	C231.735229,163.150116 231.580109,162.637802 231.424988,162.125488 
	C228.883408,162.738785 226.341843,163.352097 224.280289,163.849564 
	C225.279602,166.686722 225.401596,168.899918 226.510468,169.645630 
	C227.576126,170.362259 229.663666,169.559341 231.270554,169.426727 
	C230.300232,167.014633 229.790863,165.748383 230.055817,164.556580 
M423.592285,162.836975 
	C421.304443,163.202515 419.016602,163.568054 416.728760,163.933594 
	C417.962646,166.061707 419.196533,168.189804 420.430420,170.317917 
	C420.888306,170.261292 421.346191,170.204651 421.804077,170.148026 
	C421.804077,168.344498 421.804077,166.540985 421.804077,164.769058 
	C422.250305,164.503540 423.139832,163.974228 423.592285,162.836975 
M190.031662,168.331177 
	C191.100082,169.248795 192.168518,170.166412 193.068741,170.939560 
	C194.117966,166.460892 194.939346,162.954834 195.777786,159.375916 
	C192.707748,159.764862 192.707748,159.764862 190.031662,168.331177 
M175.487823,164.127426 
	C175.487823,162.563599 175.487823,160.999786 175.487823,159.435959 
	C175.199692,159.357285 174.911560,159.278595 174.623428,159.199921 
	C173.158783,162.867996 171.694138,166.536057 170.229492,170.204117 
	C170.963150,170.531906 171.696808,170.859695 172.430481,171.187469 
	C173.370911,169.078934 174.311340,166.970398 175.487823,164.127426 
M345.935547,167.927841 
	C346.161163,168.862808 346.386780,169.797791 346.612427,170.732742 
	C347.362885,170.240723 348.583313,169.891739 348.783966,169.232361 
	C349.747253,166.067703 350.434814,162.819138 351.220276,159.600357 
	C350.766510,159.405655 350.312744,159.210938 349.858978,159.016235 
	C348.618225,161.750702 347.377441,164.485153 345.935547,167.927841 
M398.604645,170.766113 
	C400.663208,168.177505 402.721771,165.588882 405.403717,162.216339 
	C403.096893,162.631363 400.009155,162.323318 399.211304,163.529739 
	C397.967102,165.411011 398.276276,168.319672 398.604645,170.766113 
M319.991943,164.462936 
	C319.407867,166.429489 318.823792,168.396027 318.239685,170.362564 
	C318.648895,170.623764 319.058105,170.884979 319.467316,171.146179 
	C321.809875,168.476242 324.152466,165.806320 327.460541,162.035995 
	C324.570923,162.729401 322.426971,163.243866 319.991943,164.462936 
M295.537048,162.831177 
	C289.196747,162.011658 288.386719,162.791870 287.614380,171.477356 
	C289.059052,170.366119 290.597504,169.760345 290.651550,169.042755 
	C290.907104,165.649643 293.579376,164.818771 295.537048,162.831177 
M196.840469,169.343704 
	C197.934311,169.294098 199.839859,169.547791 199.990143,169.145599 
	C200.959122,166.552521 201.544464,163.816101 202.255692,161.126709 
	C201.757446,160.939133 201.259201,160.751572 200.760971,160.563995 
	C199.507019,163.272827 198.253067,165.981644 196.840469,169.343704 
z"/>
<path fill="#35360C" opacity="1.000000" stroke="none" 
	d="
M67.017227,49.046684 
	C69.557678,50.704643 71.995018,52.578125 74.707771,53.875927 
	C75.426941,54.219986 77.341782,53.079861 78.117088,52.136093 
	C86.847610,41.508537 98.188141,36.935669 111.753967,36.930443 
	C121.177933,36.926811 130.574997,36.772449 139.664658,39.814301 
	C140.870743,40.217915 142.064316,40.658909 143.201996,41.060799 
	C143.171524,41.421066 143.179688,41.324615 143.187836,41.228161 
	C143.052734,41.289814 142.922012,41.392212 142.781891,41.407322 
	C130.268600,42.756519 117.640236,43.476940 105.296501,45.745918 
	C100.308746,46.662746 95.315819,50.292732 91.461052,53.901329 
	C87.155647,57.931789 88.276176,61.974289 92.461708,66.165565 
	C96.202225,69.911217 99.268730,74.326866 102.977135,78.109100 
	C104.621719,79.786423 107.048843,81.554184 109.233276,81.710724 
	C129.248322,83.145103 142.674408,73.434120 148.086563,54.026836 
	C148.482391,52.607483 148.910675,51.197178 149.439789,49.385857 
	C155.100571,69.575356 146.767670,84.367325 127.026161,89.284798 
	C121.254295,90.722527 115.250969,91.231041 110.311569,92.013687 
	C109.187531,101.545044 108.077927,110.982674 106.952194,120.418381 
	C106.893669,120.908867 106.736687,121.397827 106.559593,121.862350 
	C104.900734,126.213577 103.956329,131.068466 101.368073,134.773712 
	C98.346672,139.099014 93.131866,135.388885 88.923462,136.218048 
	C83.728401,137.241592 78.381439,137.494202 72.364601,138.161514 
	C75.035789,134.587875 77.486412,131.534317 79.695915,128.315247 
	C90.524712,112.538582 93.970558,96.166298 83.273743,78.842888 
	C77.033821,68.737381 71.914314,66.712753 60.262936,69.655060 
	C56.120651,70.701111 52.043987,72.006996 47.937366,73.194267 
	C47.681011,72.523735 47.424660,71.853195 47.168304,71.182663 
	C53.780533,68.110252 60.392765,65.037849 67.672127,61.655464 
	C57.336670,52.842258 45.302429,46.172516 32.853725,40.116997 
	C33.044556,39.570297 33.235390,39.023598 33.426224,38.476898 
	C37.871361,39.546040 42.346912,40.504498 46.753105,41.715347 
	C51.186684,42.933731 55.551285,44.403141 60.346447,45.679119 
	C62.836933,46.746017 64.927078,47.896351 67.017227,49.046684 
z"/>
<path fill="#37370A" opacity="1.000000" stroke="none" 
	d="
M185.968262,118.933701 
	C186.513031,116.240776 187.258835,113.989120 187.456619,111.690323 
	C188.068268,104.581192 198.172195,101.431885 204.075607,102.387161 
	C203.191162,105.467514 202.311829,108.530037 201.062531,112.881050 
	C203.248871,111.472305 204.582626,110.936913 205.468002,109.984650 
	C208.778214,106.424309 212.741379,105.527657 217.240875,106.894531 
	C221.477997,108.181686 225.587875,108.566910 229.642700,106.310898 
	C230.187149,106.007980 231.004913,105.860260 231.590622,106.022179 
	C235.315033,107.051773 239.009811,108.188499 242.714355,109.289925 
	C241.676971,114.069702 241.916306,119.821281 239.232162,123.347572 
	C236.702789,126.670502 231.093689,127.649208 226.317902,129.905579 
	C226.317902,125.602707 226.317902,121.950218 226.317902,117.701859 
	C222.057693,120.417152 218.617981,123.075661 214.793167,124.947174 
	C207.538422,128.496994 205.677704,127.311928 204.869873,117.819122 
	C200.724518,122.247208 197.429214,125.990082 193.874695,129.468048 
	C192.156250,131.149475 189.950775,132.333160 187.965805,133.742203 
	C187.283401,133.345291 186.600983,132.948395 185.918579,132.551483 
	C185.918579,128.152130 185.918579,123.752769 185.968262,118.933701 
z"/>
<path fill="#353609" opacity="1.000000" stroke="none" 
	d="
M354.080505,104.929596 
	C361.288239,104.033051 363.491547,98.130653 366.368622,93.372276 
	C368.955536,89.093781 372.316711,87.602539 377.654022,87.665009 
	C377.135193,89.682617 376.845490,91.409325 376.250549,93.023521 
	C372.820923,102.329002 370.819977,111.888245 371.159637,121.839050 
	C371.301208,125.986336 371.413757,130.325546 376.866089,131.382660 
	C371.084625,137.564423 366.728607,137.667755 361.046692,131.734406 
	C358.868256,129.459579 356.745758,127.131210 354.548065,124.773918 
	C350.195465,126.842079 346.109070,129.046616 341.824066,130.752121 
	C336.662537,132.806519 333.435303,130.023727 333.947296,124.394409 
	C334.526520,118.025917 339.183746,114.540955 343.603760,111.088112 
	C346.681396,108.683868 350.314667,106.990891 354.080505,104.929596 
M345.646790,113.025429 
	C343.829315,114.411034 342.011841,115.796631 340.075195,117.273087 
	C345.326660,121.445496 354.940918,115.102745 358.009399,106.012390 
	C353.505310,108.504639 349.855469,110.524193 345.646790,113.025429 
z"/>
<path fill="#37370B" opacity="1.000000" stroke="none" 
	d="
M281.211548,97.140228 
	C282.056732,96.864182 283.155670,96.695915 283.234070,96.906868 
	C284.821808,101.179535 287.321533,105.500961 283.131714,109.749443 
	C282.676636,110.210915 282.319763,110.829536 282.085846,111.439850 
	C277.553864,123.263153 267.880402,129.275009 256.846771,133.693069 
	C255.534637,134.218460 253.981400,134.141769 251.510025,134.488785 
	C253.629501,132.064606 254.891556,130.621109 257.011871,128.195938 
	C251.060410,129.858109 250.123581,126.329277 248.991623,122.936958 
	C246.749374,116.217224 245.731461,109.425598 247.526642,101.811295 
	C252.623398,102.569511 257.629211,103.314194 263.122559,104.131416 
	C263.122559,108.632988 263.122559,113.024757 263.122559,117.416534 
	C263.489502,117.583786 263.856476,117.751030 264.223419,117.918282 
	C269.812317,111.087059 275.401215,104.255829 281.211548,97.140228 
z"/>
<path fill="#38390D" opacity="1.000000" stroke="none" 
	d="
M316.035706,130.146698 
	C312.656891,124.748749 308.613983,124.512909 303.873291,127.555595 
	C303.048004,128.085266 302.076538,128.461197 301.120605,128.701462 
	C293.859314,130.526474 290.454010,128.018448 290.321991,120.648834 
	C290.280640,118.341003 290.370422,115.975723 290.828308,113.723785 
	C292.609039,104.966034 293.686340,104.038025 302.473663,102.627823 
	C305.184021,102.192863 307.875580,101.640800 310.955109,101.072319 
	C307.941986,108.259621 305.174805,114.860252 302.407623,121.460892 
	C302.835266,121.789192 303.262909,122.117500 303.690552,122.445808 
	C309.519714,120.815247 315.765289,118.545822 318.449982,113.072411 
	C320.863739,108.151276 323.929108,107.934860 327.996582,108.057991 
	C327.996582,116.899818 327.996582,125.712769 327.996582,135.475800 
	C323.861023,133.674622 320.089478,132.031967 316.035706,130.146698 
z"/>
<path fill="#38390C" opacity="1.000000" stroke="none" 
	d="
M149.587448,103.295731 
	C154.366119,102.571480 158.738007,101.902603 163.392380,101.190514 
	C160.426270,108.182404 157.661911,114.698685 154.897552,121.214958 
	C155.278625,121.590858 155.659683,121.966759 156.040741,122.342651 
	C162.083145,120.985771 168.397034,118.480583 170.994675,112.857704 
	C173.452332,107.537865 176.881531,108.433777 180.459152,107.876518 
	C180.459152,116.961060 180.459152,125.663750 180.459152,134.963303 
	C173.711548,133.265457 167.434341,131.066055 164.086975,125.527069 
	C158.269409,126.687576 153.186539,127.958557 148.025848,128.639709 
	C144.643524,129.086121 142.523239,127.037331 142.971069,123.532463 
	C143.698608,117.838264 144.638474,112.155785 145.876648,106.554108 
	C146.152954,105.304077 148.036896,104.409386 149.587448,103.295731 
z"/>
<path fill="#ACC04C" opacity="1.000000" stroke="none" 
	d="
M67.430695,49.014610 
	C64.927078,47.896351 62.836933,46.746017 60.528931,45.343834 
	C58.162094,43.052238 55.920826,41.100239 53.882145,38.955647 
	C48.628723,33.429283 47.419022,25.726280 51.032509,19.682961 
	C51.671448,18.614374 53.921497,17.334272 54.688953,17.700335 
	C61.833408,21.108131 69.168579,24.321095 75.741714,28.660982 
	C81.689857,32.588230 81.657982,39.186577 80.348907,46.810509 
	C77.535995,44.009895 75.297279,41.780960 73.058563,39.552029 
	C72.703354,39.831429 72.348152,40.110828 71.992950,40.390228 
	C72.729843,43.413055 73.466728,46.435879 74.317101,49.924221 
	C71.587036,49.527050 69.715599,49.254791 67.430695,49.014610 
z"/>
<path fill="#ACC04D" opacity="1.000000" stroke="none" 
	d="
M119.418610,67.742920 
	C111.127586,67.368065 103.277702,66.934265 95.427826,66.500458 
	C95.320335,65.682281 95.212852,64.864098 95.105370,64.045921 
	C99.602997,62.345192 104.100624,60.644466 108.598251,58.943737 
	C108.488708,58.465061 108.379166,57.986389 108.269623,57.507713 
	C103.435593,58.328941 98.601562,59.150173 93.847443,59.957832 
	C100.852074,46.800282 127.401962,46.559685 141.954590,53.406059 
	C137.115662,62.225986 129.085831,65.852417 119.418610,67.742920 
z"/>
<path fill="#ABC04B" opacity="1.000000" stroke="none" 
	d="
M65.238091,81.186729 
	C67.828621,79.349617 70.419159,77.512505 73.929436,75.023140 
	C74.256653,81.889427 71.672729,86.331192 67.491669,89.716599 
	C59.545666,96.150505 49.911316,98.137695 40.029846,98.933113 
	C39.088562,99.008881 37.222301,96.952522 37.054699,95.714218 
	C36.174217,89.208740 38.899422,83.957901 43.889503,79.998421 
	C51.330811,74.093979 60.198654,72.204796 70.701553,71.078667 
	C68.084900,74.142754 66.227676,76.317566 63.892502,78.901276 
	C60.075150,82.051392 56.735744,84.792587 53.396343,87.533791 
	C58.418388,87.239944 62.594036,85.569298 65.238091,81.186729 
z"/>
<path fill="#333407" opacity="1.000000" stroke="none" 
	d="
M392.461731,107.355316 
	C389.431488,107.621048 386.838684,107.839272 384.245880,108.057503 
	C384.043549,107.194695 383.841248,106.331886 383.638947,105.469078 
	C385.904846,104.582687 388.127777,103.094994 390.445221,102.929359 
	C396.057404,102.528252 401.713776,102.756363 407.352081,102.704765 
	C410.581604,102.675217 417.664581,110.402611 416.740356,113.411148 
	C416.345612,114.696205 414.586456,115.778130 413.209961,116.499397 
	C410.567108,117.884178 407.753265,118.941986 405.013428,120.142441 
	C402.472382,121.255806 399.935364,122.378326 397.396545,123.496803 
	C397.273560,124.000763 397.150604,124.504730 397.027618,125.008690 
	C402.503357,127.257027 407.979126,129.505356 413.454865,131.753693 
	C413.487549,132.080399 413.520203,132.407120 413.552856,132.733826 
	C409.352783,132.490891 404.979767,132.899155 400.996063,131.841293 
	C395.939880,130.498627 391.016357,128.313232 386.369446,125.859116 
	C380.512024,122.765724 380.560120,119.876198 386.325287,116.212090 
	C391.148376,113.146736 396.216492,110.466949 401.713043,107.307808 
	C398.367584,107.307808 395.633362,107.307808 392.461731,107.355316 
z"/>
<path fill="#363709" opacity="1.000000" stroke="none" 
	d="
M446.719666,127.106262 
	C445.420898,125.907074 444.122131,124.707878 442.358765,123.209015 
	C437.929779,125.214294 433.965363,127.519218 430.000946,129.824158 
	C428.097870,130.453354 426.194824,131.082535 424.291748,131.711716 
	C423.844910,129.843826 423.017487,127.976151 423.016510,126.108032 
	C423.011993,117.603661 428.772583,112.435852 435.011139,107.051712 
	C438.436707,105.295227 441.200897,103.694916 443.965118,102.094604 
	C444.403992,102.025764 444.842834,101.956917 445.864624,102.182388 
	C448.020874,102.609009 449.594177,102.741318 451.167511,102.873627 
	C451.167511,102.873627 451.071930,102.942291 451.109955,103.254700 
	C452.150330,104.006020 453.152710,104.444931 454.155060,104.883842 
	C454.155060,104.883842 454.060791,104.958687 454.051941,105.346207 
	C454.212006,109.116776 454.441956,112.498222 454.531860,115.883377 
	C454.613312,118.950531 454.150238,122.083786 454.624207,125.077538 
	C455.468201,130.407990 455.368561,130.771469 449.699921,131.118652 
	C449.359222,131.112839 449.125977,130.951599 448.975464,130.028595 
	C448.207001,128.650253 447.463348,127.878250 446.719666,127.106262 
M438.084198,112.938622 
	C432.268402,110.790054 432.733459,116.558723 430.355743,118.766273 
	C434.034607,118.495125 437.640961,118.172752 438.084198,112.938622 
z"/>
<path fill="#36380C" opacity="1.000000" stroke="none" 
	d="
M117.031403,122.974693 
	C118.691429,117.910957 119.635216,112.830887 122.171051,108.736954 
	C126.544815,101.675804 131.908493,95.227821 137.602875,88.926880 
	C141.034164,98.688538 130.583786,104.350502 130.917587,113.246017 
	C135.373886,113.874825 135.879120,114.932793 134.032913,119.519516 
	C132.281677,123.870285 133.436111,129.759140 134.473801,134.729218 
	C135.122360,137.835617 133.325562,138.697372 131.858582,139.433395 
	C130.389832,140.170303 127.670891,140.432297 126.577644,139.556763 
	C121.439278,135.441650 117.230019,130.539932 117.031403,122.974693 
M130.905746,134.221939 
	C133.694656,130.843613 133.673462,125.257301 130.455643,120.505157 
	C127.510521,125.160820 129.573257,129.389252 130.905746,134.221939 
z"/>
<path fill="#434623" opacity="1.000000" stroke="none" 
	d="
M345.790894,143.854828 
	C348.002502,141.815964 349.905609,139.986038 351.808777,138.156097 
	C352.584534,140.661423 353.439148,143.146240 354.098969,145.681732 
	C354.380737,146.764343 354.255981,147.952728 354.315155,149.077042 
	C351.413940,149.456711 351.413940,149.456711 349.825562,144.173492 
	C345.298737,149.383942 345.298737,149.383942 341.147583,144.351425 
	C340.873810,144.510681 340.476105,144.605972 340.349487,144.844894 
	C339.481781,146.482346 338.670898,148.149902 337.841736,149.807755 
	C337.472412,147.942108 337.033081,146.086395 336.766907,144.206146 
	C336.654114,143.408997 336.733398,142.492050 337.028900,141.750473 
	C337.527039,140.500351 338.267090,139.346634 338.905396,138.152374 
	C340.209778,138.948654 341.656647,139.585403 342.777618,140.586945 
	C343.854797,141.549377 344.594482,142.889557 345.790894,143.854828 
z"/>
<path fill="#424423" opacity="1.000000" stroke="none" 
	d="
M203.854721,140.958832 
	C204.793091,136.711227 206.890900,137.600647 208.816986,139.515182 
	C210.072449,140.763138 210.856018,142.485809 211.812088,143.936768 
	C212.293777,143.820068 212.652649,143.842163 212.829788,143.673462 
	C214.758728,141.836441 216.659210,139.969528 218.567444,138.110764 
	C219.362366,140.615112 220.255188,143.094376 220.906021,145.635620 
	C221.182602,146.715607 220.952194,147.925430 220.952194,149.430298 
	C215.650726,150.765793 218.468735,145.428619 216.635498,144.149246 
	C211.562149,149.435898 213.128281,150.309814 207.672394,144.110474 
	C207.466812,144.304565 207.182159,144.462280 207.070526,144.700912 
	C206.277588,146.395981 205.520065,148.107635 204.751266,149.813995 
	C204.314697,147.988480 203.765594,146.179855 203.488159,144.330460 
	C203.345459,143.379181 203.686996,142.355270 203.854721,140.958832 
z"/>
<path fill="#3F4221" opacity="1.000000" stroke="none" 
	d="
M401.537903,140.395355 
	C402.891815,141.644958 403.975037,142.651978 405.029205,143.632034 
	C405.395905,143.409515 405.756592,143.320694 405.859894,143.107315 
	C406.655609,141.463013 407.401489,139.794617 408.162811,138.133682 
	C408.708618,139.811798 409.505463,141.456375 409.735352,143.176712 
	C410.010193,145.233398 409.800201,147.354874 409.800201,151.194687 
	C407.145081,149.207642 405.624023,148.273666 404.362244,147.068314 
	C403.067474,145.831436 402.026123,144.329254 400.049377,141.951324 
	C399.735718,144.544861 399.767090,145.772522 399.402893,146.868759 
	C399.054352,147.917847 398.294678,148.830338 397.715698,149.802856 
	C397.056519,148.901642 395.916656,148.044647 395.828918,147.090866 
	C395.573181,144.311554 395.738098,141.493515 395.738098,137.424973 
	C398.089691,138.585159 399.678436,139.368973 401.537903,140.395355 
z"/>
<path fill="#4A4E2D" opacity="1.000000" stroke="none" 
	d="
M175.141434,147.897690 
	C174.134796,148.488968 172.510040,149.435760 171.802246,148.974747 
	C170.519836,148.139481 169.783951,146.465118 168.192307,144.279022 
	C167.413315,146.416122 167.303955,147.169601 166.903915,147.706512 
	C166.315445,148.496384 165.519547,149.131699 164.812012,149.832855 
	C164.210205,149.032822 163.155304,148.268234 163.089478,147.426300 
	C162.870438,144.624725 163.006607,141.795364 163.006607,138.405991 
	C166.123871,138.405991 169.078369,138.002625 171.864731,138.514526 
	C174.913818,139.074692 176.606155,140.830780 174.284058,144.221558 
	C173.825638,144.890976 174.685028,146.462860 175.141434,147.897690 
z"/>
<path fill="#454826" opacity="1.000000" stroke="none" 
	d="
M324.657288,149.918488 
	C317.906342,149.723389 314.621368,147.376007 315.051575,143.387466 
	C315.458191,139.618103 319.893250,136.799149 324.805878,138.184143 
	C327.222656,138.865494 330.284363,141.219208 330.911682,143.425385 
	C332.053802,147.441727 328.608002,149.111877 324.657288,149.918488 
M325.141113,147.081467 
	C327.950958,143.966080 327.706696,141.158295 324.387634,140.559708 
	C322.984680,140.306671 321.104034,140.894028 319.942719,141.767288 
	C319.211456,142.317108 318.850311,144.868332 319.297241,145.196960 
	C320.724335,146.246307 322.606506,146.676727 325.141113,147.081467 
z"/>
<path fill="#414321" opacity="1.000000" stroke="none" 
	d="
M243.795837,144.843857 
	C243.796295,142.465439 243.796295,140.514389 243.796295,138.338272 
	C248.815231,137.982529 253.641846,136.879425 256.999542,141.098801 
	C257.932922,142.271667 258.020538,145.283173 257.157959,146.511063 
	C253.990601,151.019653 249.076996,149.877213 244.074280,149.656570 
	C243.975494,148.103195 243.885437,146.687210 243.795837,144.843857 
M254.118622,143.566757 
	C252.345947,142.221939 250.573257,140.877121 247.846802,138.808746 
	C247.846802,142.957031 247.846802,145.145035 247.846802,147.333038 
	C248.250870,147.679733 248.654953,148.026443 249.059021,148.373138 
	C250.741974,147.029800 252.424942,145.686478 254.118622,143.566757 
z"/>
<path fill="#414524" opacity="1.000000" stroke="none" 
	d="
M277.495422,147.490570 
	C275.805267,148.525116 274.494293,149.367538 273.183289,150.209976 
	C272.823761,149.840012 272.464203,149.470047 272.104645,149.100082 
	C273.834137,145.983749 275.403259,142.763077 277.342316,139.783096 
	C278.983063,137.261536 281.250336,137.282867 282.891602,139.775986 
	C284.848541,142.748566 286.428436,145.969345 288.599243,149.846237 
	C284.366425,148.840668 281.120514,148.069565 277.495422,147.490570 
z"/>
<path fill="#464928" opacity="1.000000" stroke="none" 
	d="
M382.103333,147.270081 
	C379.684875,148.204803 377.704285,149.137054 375.723663,150.069305 
	C375.457764,149.739365 375.191833,149.409424 374.925934,149.079468 
	C376.565521,146.078186 378.051239,142.978729 379.886719,140.102432 
	C381.837769,137.044952 384.139954,137.199768 386.018860,140.239273 
	C387.741119,143.025436 389.235535,145.952423 391.596191,150.193192 
	C387.725220,148.942505 385.133209,148.105057 382.103333,147.270081 
z"/>
<path fill="#444825" opacity="1.000000" stroke="none" 
	d="
M157.370026,149.583801 
	C156.102859,149.536011 154.896667,149.605759 154.307632,149.036713 
	C151.591003,146.412216 149.046478,146.303024 146.179260,148.819168 
	C145.366791,149.532150 144.010681,149.625626 142.144547,149.092316 
	C143.891235,145.979630 145.467682,142.753815 147.437592,139.789459 
	C149.063812,137.342255 151.389282,137.148270 152.972183,139.796890 
	C154.798889,142.853470 156.154877,146.191360 157.370026,149.583801 
z"/>
<path fill="#4C4F30" opacity="1.000000" stroke="none" 
	d="
M236.395508,147.302597 
	C237.404526,147.751892 238.005630,148.195618 238.606735,148.639359 
	C237.977188,149.047485 237.361511,149.780518 236.715714,149.808075 
	C233.752182,149.934540 230.780243,149.863739 227.407257,149.863739 
	C227.407257,146.014236 227.407257,142.463638 227.407257,138.566589 
	C230.831635,138.566589 234.398361,138.566589 237.965103,138.566589 
	C238.025360,139.034668 238.085632,139.502762 238.145889,139.970840 
	C235.814011,140.303925 233.482117,140.637009 231.150238,140.970078 
	C231.115936,141.283661 231.081635,141.597244 231.047348,141.910828 
	C233.141769,142.327942 235.236191,142.745071 237.330627,143.162186 
	C237.312469,143.561172 237.294327,143.960159 237.276184,144.359161 
	C235.190125,144.708054 233.104065,145.056946 231.018005,145.405838 
	C230.976898,145.812607 230.935776,146.219360 230.894653,146.626129 
	C232.592300,146.849762 234.289963,147.073395 236.395508,147.302597 
z"/>
<path fill="#444725" opacity="1.000000" stroke="none" 
	d="
M371.923370,139.874481 
	C373.853027,144.636841 370.505188,144.949295 367.632538,145.934387 
	C366.274597,146.400055 365.201813,147.666718 363.958801,148.509933 
	C363.228302,149.005463 362.282349,149.855148 361.679108,149.683243 
	C361.037109,149.500259 360.315918,148.319839 360.272491,147.539154 
	C360.108765,144.596344 360.206757,141.638992 360.206757,137.406494 
	C364.497681,138.219025 368.084930,138.898315 371.923370,139.874481 
z"/>
<path fill="#4B4B4B" opacity="1.000000" stroke="none" 
	d="
M370.675049,172.817902 
	C368.134949,173.123795 365.941071,173.263290 363.747162,173.402786 
	C363.667999,172.999802 363.588806,172.596832 363.509644,172.193848 
	C364.519958,171.654694 365.530304,171.115524 365.840088,170.950226 
	C365.636475,168.776352 364.707428,165.727600 365.423492,165.273605 
	C368.058990,163.602722 371.239746,162.791962 374.215393,161.657623 
	C374.730713,162.287292 375.246002,162.916977 375.761292,163.546646 
	C374.181274,166.581604 372.601288,169.616547 370.675049,172.817902 
z"/>
<path fill="#454545" opacity="1.000000" stroke="none" 
	d="
M343.094788,166.934753 
	C342.066803,168.398499 341.093658,169.463348 340.120483,170.528214 
	C339.847992,170.278503 339.575500,170.028809 339.303040,169.779099 
	C339.506653,168.278687 339.710297,166.778290 339.913910,165.277878 
	C339.496979,165.127167 339.080017,164.976456 338.663055,164.825729 
	C338.117554,165.962509 337.680054,167.169922 336.995911,168.216003 
	C336.323792,169.243683 335.401093,170.107437 333.610596,170.454010 
	C333.826599,168.647125 334.042603,166.840225 334.258606,165.033340 
	C333.935699,164.869598 333.612793,164.705841 333.289917,164.542084 
	C331.881836,166.743088 330.473785,168.944077 329.065735,171.145081 
	C328.610535,170.870331 328.155334,170.595566 327.700134,170.320816 
	C328.377747,167.345474 327.555908,163.522522 332.102753,162.564575 
	C337.734680,161.377991 342.326538,163.148819 343.094788,166.934753 
z"/>
<path fill="#4A4A4A" opacity="1.000000" stroke="none" 
	d="
M138.419067,172.018463 
	C137.340225,172.748581 136.439423,173.152039 134.639359,173.958237 
	C135.691574,170.536407 136.574539,168.236786 137.087601,165.857391 
	C137.790771,162.596451 140.146957,161.865555 142.689163,162.547150 
	C144.254578,162.966873 145.454590,164.749512 146.818665,165.920197 
	C145.313370,167.478897 143.941376,169.208206 142.250458,170.529343 
	C141.306290,171.267029 139.832336,171.326614 138.419067,172.018463 
z"/>
<path fill="#494C2D" opacity="1.000000" stroke="none" 
	d="
M306.024414,140.369019 
	C304.426666,141.850494 303.258301,143.314865 302.089905,144.779251 
	C303.673401,145.649704 305.179443,146.754791 306.866394,147.311996 
	C308.086548,147.714981 309.546967,147.390594 311.630066,147.390594 
	C308.020355,150.644226 301.815552,150.950928 299.769409,147.927368 
	C298.578583,146.167725 298.247253,142.800369 299.125092,140.889511 
	C300.743164,137.367325 306.742920,136.977966 312.219696,140.351913 
	C309.353363,140.351913 307.903564,140.351913 306.024414,140.369019 
z"/>
<path fill="#484848" opacity="1.000000" stroke="none" 
	d="
M382.143707,167.831696 
	C384.156982,165.517181 385.859589,163.369843 387.771393,161.428528 
	C389.938110,159.228348 391.838348,159.174988 392.604065,162.664062 
	C393.152740,165.163956 393.531097,167.701233 393.600983,171.148773 
	C389.240753,166.840591 385.234924,168.148193 380.850800,170.362289 
	C381.209015,169.604797 381.567230,168.847321 382.143707,167.831696 
z"/>
<path fill="#343710" opacity="1.000000" stroke="none" 
	d="
M449.878662,131.446213 
	C455.368561,130.771469 455.468201,130.407990 454.624207,125.077538 
	C454.150238,122.083786 454.613312,118.950531 454.531860,115.883377 
	C454.441956,112.498222 454.212006,109.116776 454.072845,105.289780 
	C455.255127,106.667763 457.383881,108.486153 457.390472,110.312218 
	C457.418518,118.058556 456.816589,125.807175 456.419556,134.081146 
	C454.464874,133.372238 452.261139,132.572998 449.878662,131.446213 
z"/>
<path fill="#464646" opacity="1.000000" stroke="none" 
	d="
M262.410400,169.639862 
	C262.882202,167.702652 263.390778,166.122925 263.898926,164.543060 
	C265.343353,160.052139 267.644226,158.718445 271.964447,160.298065 
	C273.143799,160.729263 274.465515,162.059982 274.746063,163.214951 
	C274.938507,164.007187 273.640381,165.793701 272.667694,166.120209 
	C269.548157,167.167297 266.041046,167.287872 264.119720,170.633362 
	C264.072968,170.714722 263.026886,170.222153 262.410400,169.639862 
z"/>
<path fill="#4A4C2E" opacity="1.000000" stroke="none" 
	d="
M188.316635,141.912567 
	C188.253113,144.195221 188.400940,146.040878 188.161087,147.834671 
	C188.064346,148.558289 187.119217,149.168472 186.560181,149.830261 
	C185.822876,149.170609 184.553223,148.584641 184.449768,147.837234 
	C184.158920,145.736008 184.348282,143.568314 184.348282,141.168427 
	C182.667847,140.754471 181.183624,140.388840 179.699387,140.023224 
	C179.725998,139.637543 179.752594,139.251862 179.779205,138.866180 
	C184.162643,138.866180 188.546082,138.866180 192.929535,138.866180 
	C192.981506,139.128433 193.033478,139.390686 193.085449,139.652924 
	C191.514374,140.253525 189.943298,140.854111 188.316635,141.912567 
z"/>
<path fill="#4E4E4E" opacity="1.000000" stroke="none" 
	d="
M178.068741,165.091919 
	C181.289780,163.813660 184.299362,162.846237 188.357758,161.541641 
	C187.467087,165.690216 186.967194,168.018631 186.473740,170.317032 
	C177.575256,171.120102 176.999283,170.786102 178.068741,165.091919 
z"/>
<path fill="#444827" opacity="1.000000" stroke="none" 
	d="
M419.041626,144.315613 
	C417.456818,142.379410 416.118561,140.741409 414.780304,139.103424 
	C415.117828,138.646423 415.455322,138.189423 415.792816,137.732422 
	C417.919312,139.033676 420.045837,140.334915 422.117981,141.602905 
	C423.891541,140.383224 425.949463,138.967987 429.105438,136.797623 
	C426.841858,141.818298 425.337891,145.300171 423.672089,148.702805 
	C423.399384,149.259781 422.386597,149.794479 421.764679,149.743546 
	C421.158905,149.693924 420.337311,148.986542 420.104279,148.378662 
	C419.649933,147.193619 419.540466,145.876343 419.041626,144.315613 
z"/>
<path fill="#4C4C4C" opacity="1.000000" stroke="none" 
	d="
M309.936432,162.842575 
	C313.287323,162.066467 316.524170,161.994308 316.644043,165.888550 
	C316.753662,169.449020 313.748138,171.024353 310.429443,170.789200 
	C309.046692,170.691223 306.517578,168.899353 306.626617,168.562042 
	C307.266388,166.582916 308.531982,164.806122 309.936432,162.842575 
z"/>
<path fill="#4D4D4D" opacity="1.000000" stroke="none" 
	d="
M130.205032,159.837952 
	C131.466797,160.089874 132.307251,160.351181 134.610855,161.067429 
	C131.821686,161.836044 130.471405,162.208145 129.007919,162.611450 
	C129.636826,165.396561 136.072495,165.026108 132.802994,169.079361 
	C130.374313,172.090210 126.685921,171.306915 123.432892,168.807739 
	C124.409584,168.724197 125.385460,168.629196 126.363174,168.560150 
	C127.454567,168.483063 128.547623,168.429565 129.927322,168.349014 
	C128.142212,166.289795 126.661964,164.582230 125.181717,162.874680 
	C126.715729,161.865570 128.249741,160.856461 130.205032,159.837952 
z"/>
<path fill="#4C4C4C" opacity="1.000000" stroke="none" 
	d="
M362.314880,164.467728 
	C361.567627,166.936996 360.717468,169.057587 359.867310,171.178192 
	C359.289978,170.955475 358.712646,170.732758 358.135315,170.510040 
	C358.410736,168.709152 358.686188,166.908264 358.961639,165.107361 
	C358.628143,164.902191 358.294647,164.697006 357.961151,164.491821 
	C356.451172,166.703552 354.941162,168.915283 353.431183,171.126999 
	C352.827179,170.772980 352.223145,170.418961 351.619110,170.064941 
	C352.716431,167.674255 353.228577,164.363708 355.092468,163.178040 
	C356.639923,162.193665 359.778320,163.710342 362.314880,164.467728 
z"/>
<path fill="#464646" opacity="1.000000" stroke="none" 
	d="
M253.882996,169.951172 
	C252.824768,169.810532 251.279572,169.399323 251.263138,168.934143 
	C251.216354,167.608582 251.792114,166.261047 252.122879,164.922150 
	C251.716171,164.734421 251.309464,164.546692 250.902756,164.358948 
	C249.432068,166.615265 247.961365,168.871567 246.490677,171.127869 
	C245.874451,170.801208 245.258224,170.474564 244.641983,170.147903 
	C245.810852,167.707916 246.490860,164.740616 248.335983,163.030106 
	C249.404846,162.039230 253.397034,162.306854 254.183823,163.386002 
	C255.168365,164.736359 254.212433,167.501511 253.882996,169.951172 
z"/>
<path fill="#4F4F4F" opacity="1.000000" stroke="none" 
	d="
M149.897095,165.180618 
	C151.244598,164.249542 152.207199,162.837509 153.213394,162.805740 
	C154.964172,162.750427 156.741867,163.546875 158.508270,163.986252 
	C157.571655,165.333160 156.635056,166.680069 155.416656,168.432205 
	C155.485550,168.526337 156.050659,169.298401 156.704376,170.191528 
	C150.129089,171.647064 148.527328,170.478500 149.897095,165.180618 
z"/>
<path fill="#4B4B4B" opacity="1.000000" stroke="none" 
	d="
M294.970032,171.987991 
	C295.974396,169.737122 296.920074,167.790466 297.627411,165.760742 
	C299.992584,158.973740 299.959930,158.962357 304.222870,162.879150 
	C302.593414,165.244156 300.849731,167.304352 299.640839,169.641205 
	C297.885895,173.033585 297.585236,173.375870 294.970032,171.987991 
z"/>
<path fill="#545454" opacity="1.000000" stroke="none" 
	d="
M206.489487,167.451385 
	C205.976303,166.195816 205.463120,164.940247 204.949936,163.684677 
	C207.253937,163.190140 209.557922,162.695602 211.861923,162.201065 
	C211.980209,162.718903 212.098495,163.236755 212.216797,163.754608 
	C211.149979,164.215378 210.083160,164.676163 209.780914,164.806717 
	C210.078751,166.623749 210.339111,168.212082 210.599472,169.800430 
	C208.239838,170.036743 205.880203,170.273056 203.520569,170.509369 
	C203.967255,169.885513 204.413971,169.261673 205.464722,168.741516 
	C206.582016,168.655594 207.095276,168.465973 207.608521,168.276337 
	C207.235504,168.001358 206.862488,167.726379 206.489487,167.451385 
z"/>
<path fill="#535353" opacity="1.000000" stroke="none" 
	d="
M219.036255,168.681274 
	C219.610092,169.349411 219.782639,169.989120 219.955170,170.628845 
	C218.041443,170.127533 216.127701,169.626221 214.213959,169.124908 
	C215.091644,166.355240 215.969345,163.585556 216.847031,160.815887 
	C218.644867,161.590744 220.442703,162.365585 222.830627,163.394760 
	C217.769562,165.538513 217.769562,165.538513 219.036255,168.681274 
z"/>
<path fill="#545454" opacity="1.000000" stroke="none" 
	d="
M406.451172,167.250916 
	C406.706421,166.408630 406.834564,165.929840 406.989624,165.459946 
	C408.991730,159.393585 408.992706,159.393906 414.007904,163.529236 
	C412.666992,164.659012 411.311981,165.800659 409.956970,166.942322 
	C410.824860,167.870514 411.692719,168.798691 412.517487,169.680786 
	C409.041931,171.877686 407.905884,171.548187 406.451172,167.250916 
z"/>
<path fill="#5B5B5B" opacity="1.000000" stroke="none" 
	d="
M163.474396,170.804016 
	C160.450928,169.685974 159.186951,167.797989 160.925858,165.329285 
	C162.983932,162.407471 165.907623,161.438904 169.590546,163.164291 
	C167.515381,164.601547 165.735611,165.834198 163.955841,167.066864 
	C165.187698,167.869171 166.419556,168.671478 168.633774,170.113571 
	C166.582443,170.446991 165.218903,170.668610 163.474396,170.804016 
z"/>
<path fill="#303513" opacity="1.000000" stroke="none" 
	d="
M265.874573,138.192688 
	C266.607513,141.540131 267.008972,144.841080 267.200745,148.154144 
	C267.229919,148.657852 266.373596,149.431992 265.763519,149.680832 
	C265.314728,149.863907 264.416046,149.572342 264.036713,149.182236 
	C262.803650,147.914124 263.953094,139.641708 265.874573,138.192688 
z"/>
<path fill="#CFCFCF" opacity="1.000000" stroke="none" 
	d="
M285.023224,164.976501 
	C284.621765,166.464401 284.220337,167.952301 283.606262,170.228226 
	C281.483917,169.908707 278.820343,169.507690 276.156738,169.106674 
	C277.256989,166.999695 278.357208,164.892715 279.457458,162.785736 
	C280.897430,164.731812 284.077026,160.468002 284.990845,164.665131 
	C285.002167,164.997604 285.023224,164.976501 285.023224,164.976501 
z"/>
<path fill="#464646" opacity="1.000000" stroke="none" 
	d="
M229.668655,164.519363 
	C229.790863,165.748383 230.300232,167.014633 231.270554,169.426727 
	C229.663666,169.559341 227.576126,170.362259 226.510468,169.645630 
	C225.401596,168.899918 225.279602,166.686722 224.280289,163.849564 
	C226.341843,163.352097 228.883408,162.738785 231.424988,162.125488 
	C231.580109,162.637802 231.735229,163.150116 231.890350,163.662430 
	C231.278839,163.960480 230.667328,164.258530 229.668655,164.519363 
z"/>
<path fill="#505050" opacity="1.000000" stroke="none" 
	d="
M423.810822,163.140945 
	C423.139832,163.974228 422.250305,164.503540 421.804077,164.769058 
	C421.804077,166.540985 421.804077,168.344498 421.804077,170.148026 
	C421.346191,170.204651 420.888306,170.261292 420.430420,170.317917 
	C419.196533,168.189804 417.962646,166.061707 416.728760,163.933594 
	C419.016602,163.568054 421.304443,163.202515 423.810822,163.140945 
z"/>
<path fill="#505050" opacity="1.000000" stroke="none" 
	d="
M190.074387,167.932678 
	C192.707748,159.764862 192.707748,159.764862 195.777786,159.375916 
	C194.939346,162.954834 194.117966,166.460892 193.068741,170.939560 
	C192.168518,170.166412 191.100082,169.248795 190.074387,167.932678 
z"/>
<path fill="#4D4D4D" opacity="1.000000" stroke="none" 
	d="
M175.369797,164.494629 
	C174.311340,166.970398 173.370911,169.078934 172.430481,171.187469 
	C171.696808,170.859695 170.963150,170.531906 170.229492,170.204117 
	C171.694138,166.536057 173.158783,162.867996 174.623428,159.199921 
	C174.911560,159.278595 175.199692,159.357285 175.487823,159.435959 
	C175.487823,160.999786 175.487823,162.563599 175.369797,164.494629 
z"/>
<path fill="#535353" opacity="1.000000" stroke="none" 
	d="
M346.036133,167.573730 
	C347.377441,164.485153 348.618225,161.750702 349.858978,159.016235 
	C350.312744,159.210938 350.766510,159.405655 351.220276,159.600357 
	C350.434814,162.819138 349.747253,166.067703 348.783966,169.232361 
	C348.583313,169.891739 347.362885,170.240723 346.612427,170.732758 
	C346.386780,169.797791 346.161163,168.862808 346.036133,167.573730 
z"/>
<path fill="#575757" opacity="1.000000" stroke="none" 
	d="
M398.265930,170.779556 
	C398.276276,168.319672 397.967102,165.411011 399.211304,163.529739 
	C400.009155,162.323318 403.096893,162.631363 405.403717,162.216339 
	C402.721771,165.588882 400.663208,168.177505 398.265930,170.779556 
z"/>
<path fill="#5B5B5B" opacity="1.000000" stroke="none" 
	d="
M320.137451,164.110641 
	C322.426971,163.243866 324.570923,162.729401 327.460541,162.035995 
	C324.152466,165.806320 321.809875,168.476242 319.467316,171.146179 
	C319.058105,170.884979 318.648895,170.623764 318.239685,170.362564 
	C318.823792,168.396027 319.407867,166.429489 320.137451,164.110641 
z"/>
<path fill="#515151" opacity="1.000000" stroke="none" 
	d="
M295.699097,163.169189 
	C293.579376,164.818771 290.907104,165.649643 290.651550,169.042755 
	C290.597504,169.760345 289.059052,170.366119 287.614380,171.477356 
	C288.386719,162.791870 289.196747,162.011658 295.699097,163.169189 
z"/>
<path fill="#4F4F4F" opacity="1.000000" stroke="none" 
	d="
M196.919800,169.017090 
	C198.253067,165.981644 199.507019,163.272827 200.760971,160.563995 
	C201.259201,160.751572 201.757446,160.939133 202.255692,161.126709 
	C201.544464,163.816101 200.959122,166.552521 199.990143,169.145599 
	C199.839859,169.547791 197.934311,169.294098 196.919800,169.017090 
z"/>
<path fill="#F0F5D2" opacity="1.000000" stroke="none" 
	d="
M64.961304,81.016144 
	C62.594036,85.569298 58.418388,87.239944 53.396343,87.533791 
	C56.735744,84.792587 60.075150,82.051392 63.727013,79.191742 
	C64.254478,79.664047 64.469498,80.254807 64.961304,81.016144 
z"/>
<path fill="#343710" opacity="1.000000" stroke="none" 
	d="
M430.346558,129.779373 
	C433.965363,127.519218 437.929779,125.214294 442.047180,123.222107 
	C438.364166,125.601440 434.528168,127.668022 430.346558,129.779373 
z"/>
<path fill="#343710" opacity="1.000000" stroke="none" 
	d="
M443.694000,101.855255 
	C441.200897,103.694916 438.436707,105.295227 435.330292,106.944511 
	C436.575470,103.280754 438.895050,100.716484 443.694000,101.855255 
z"/>
<path fill="#343710" opacity="1.000000" stroke="none" 
	d="
M450.983917,102.575722 
	C449.594177,102.741318 448.020874,102.609009 446.197784,102.173553 
	C447.565460,102.006218 449.182892,102.142014 450.983917,102.575722 
z"/>
<path fill="#343710" opacity="1.000000" stroke="none" 
	d="
M446.856812,127.401230 
	C447.463348,127.878250 448.207001,128.650253 448.935974,129.807953 
	C448.278809,129.361176 447.636383,128.528687 446.856812,127.401230 
z"/>
<path fill="#343710" opacity="1.000000" stroke="none" 
	d="
M453.996918,104.610603 
	C453.152710,104.444931 452.150330,104.006020 451.128723,103.198929 
	C452.019257,103.332970 452.929016,103.835167 453.996918,104.610603 
z"/>
<path fill="#CFCFCF" opacity="1.000000" stroke="none" 
	d="
M284.990356,165.006256 
	C285.243011,165.371277 285.507507,165.727646 285.771973,166.084015 
	C285.640533,166.180313 285.509064,166.276611 285.377625,166.372925 
	C285.255157,166.077972 285.132660,165.783020 285.016693,165.232285 
	C285.023224,164.976501 285.002167,164.997604 284.990356,165.006256 
z"/>
<path fill="#F0F0E8" opacity="1.000000" stroke="none" 
	d="
M345.926208,112.784592 
	C349.855469,110.524193 353.505310,108.504639 358.009399,106.012390 
	C354.940918,115.102745 345.326660,121.445496 340.075195,117.273087 
	C342.011841,115.796631 343.829315,114.411034 345.926208,112.784592 
z"/>
<path fill="#EAEBE2" opacity="1.000000" stroke="none" 
	d="
M438.220154,113.271492 
	C437.640961,118.172752 434.034607,118.495125 430.355743,118.766273 
	C432.733459,116.558723 432.268402,110.790054 438.220154,113.271492 
z"/>
<path fill="#DBDCCD" opacity="1.000000" stroke="none" 
	d="
M130.691589,133.902252 
	C129.573257,129.389252 127.510521,125.160820 130.455643,120.505157 
	C133.673462,125.257301 133.694656,130.843613 130.691589,133.902252 
z"/>
<path fill="#EFEFE7" opacity="1.000000" stroke="none" 
	d="
M324.727020,147.213806 
	C322.606506,146.676727 320.724335,146.246307 319.297241,145.196960 
	C318.850311,144.868332 319.211456,142.317108 319.942719,141.767288 
	C321.104034,140.894028 322.984680,140.306671 324.387634,140.559708 
	C327.706696,141.158295 327.950958,143.966080 324.727020,147.213806 
z"/>
<path fill="#E3E4DB" opacity="1.000000" stroke="none" 
	d="
M254.113266,143.954956 
	C252.424942,145.686478 250.741974,147.029800 249.059021,148.373138 
	C248.654953,148.026443 248.250870,147.679733 247.846802,147.333038 
	C247.846802,145.145035 247.846802,142.957031 247.846802,138.808746 
	C250.573257,140.877121 252.345947,142.221939 254.113266,143.954956 
z"/>
<path fill="#FDFDFC" opacity="1.000000" stroke="none" 
	d="
M206.242020,167.739685 
	C206.862488,167.726379 207.235504,168.001358 207.608521,168.276337 
	C207.095276,168.465973 206.582016,168.655594 205.801651,168.739014 
	C205.687866,168.431213 205.841202,168.229599 206.242020,167.739685 
z"/>
</svg>